<svg version="1.1" id="レイヤー_1" xmlns="http://www.w3.org/2000/svg" x="0" y="0" viewBox="0 0 436 293.1" xml:space="preserve"><style>.st0{opacity:7.000000e-02}.st2{fill:#75539f}.st3{fill:#8b74b3}.st4{fill:#d3d3d3}.st5{fill:#44403f}</style><path class="st0" d="M216.6 168c35.1 0 65.4-23.8 73.7-58 .5-1.9-.5-3.9-2.4-4.6-1.8-.7-3.9 0-4.9 1.7-.9 1.6-2 3.1-3.2 4.7-1-5.1-2.3-10.8-3.5-16.5-1.5-7-3-14.2-4.2-20-.2-1.1-.5-2.1-.7-3.1 9.2 3.1 16.4 6 18.7 7.2 1.5.8 3.4.5 4.6-.7 1.2-1.2 1.6-3 .8-4.6-.9-2-3.4-3.8-29.5-20.8-5.6-3.7-11.5-7.4-16.2-10.6-.7-.5-1.4-.9-2.1-1.3 8.7-4.3 15.9-7.4 18.3-8.1 1.6-.5 2.8-2 2.8-3.8 0-1.7-1.1-3.3-2.7-3.8-2.1-.7-5.1-.3-35.2 6.1-6.7 1.4-13.6 2.9-19.2 4l-1.2.3c.1-.4.2-.7.3-1.1 7.8-4.8 16.7-7.5 25.8-7.8 2-.1 3.6-1.5 3.9-3.5s-1-3.8-2.9-4.3c-6.6-1.9-13.4-2.9-20.3-2.9.4-1.3.1-2.7-.9-3.8-1.1-1.3-2.9-1.7-4.5-1.1-1.4.6-2.3 1.5-5 5.4-38 4.7-66.3 36.7-66.3 75.3.2 41.7 34.3 75.7 76 75.7zm-6.9-143.2c.3 0 .7-.1 1-.2.3 0 .6.1.9 0 .7 0 1.3-.1 2-.1-2.9 1.3-5.7 2.8-8.3 4.6-.8.5-1.4 1.3-1.6 2.2l-.2.6c-.8 2.8-1.8 6-2.6 9.2-.4 1.5.1 3.1 1.3 4.1 1.2 1 2.8 1.2 4.2.6 2.1-.9 4.4-1.6 7.1-2.1 5.7-1.1 12.6-2.6 19.3-4 .9-.2 1.9-.4 2.8-.6-.7.8-1 1.8-.9 2.9.2 1.6 1.3 3 2.8 3.5 2.4.7 5.2 2.1 8 4 4.8 3.2 10.6 6.9 16.3 10.6.8.5 1.7 1.1 2.6 1.7-1.1.1-2.1.6-2.9 1.5-1 1.3-1.2 3.1-.3 4.5 1.4 2.3 2.4 5.3 3.2 9.2 1.2 5.9 2.7 13.1 4.2 20.1.1.5.2 1.1.3 1.6-.8-.7-1.9-1.1-3.1-.9-1.7.2-3 1.4-3.4 3-.7 2.9-2.2 6.1-4.5 9.6-3.5 5.3-7.6 11.6-11.6 17.8 7.2-23 8.9-37.1 5.3-42.2-3.6-5-8.4-7.4-13.6-8.1 3.2-.9 6.8-.9 10.2.3 1.7.6 3.6 0 4.6-1.5 1-1.5 1-3.4-.1-4.8-3.8-4.8-7-7.2-10-7.6-6.1-1-11.2.8-15.3 3.9 1.5-2.7 3.7-5 6.5-6.6 1.5-.9 2.3-2.6 2-4.4-.4-1.7-1.8-3-3.6-3.1-5.3-.4-8.8.2-11.1 1.8-5 3.6-7.4 8.4-8.1 13.5-.8-2.6-.9-5.5-.2-8.3.4-1.7-.3-3.4-1.8-4.3s-3.4-.7-4.7.4c-3.4 3-5.2 5.6-5.7 8.3-.9 6 .7 11.1 3.8 15.2-1.6-.9-3.1-2.1-4.4-3.6-1.1-1.2-2.8-1.7-4.3-1.2s-2.6 1.9-2.7 3.5v.3c-.1 1.5-.2 2.8-.2 4.2 0 4.1-.2 6.4-.5 7.6-.4-.3-.9-.8-1.5-1.4-2.1-2.2-3.8-4.8-4.8-7.7-.7-1.9-2.7-2.9-4.6-2.5-1.9.4-3.3 2.2-3.1 4.2 2.3 31.4 28.7 55.9 60.2 55.9h.9c1.5 0 2.8-.8 3.5-2.1.9 1.2 2.3 1.8 3.8 1.5 10-1.4 19.3-5.2 27.3-11.1-12.1 19.3-33.5 31.6-57.4 31.6-37.3 0-67.8-30.4-67.9-67.7-.1-34.9 26.1-64 60.9-67.4zm61.3 95.8c-4.8 3.8-10.3 6.8-16.2 8.8 3.4-5.2 6.8-10.4 9.7-14.9.7-1.1 1.4-2.2 2-3.3 1.6 3.2 3.2 6.4 4.5 9.4zM236.5 132c-20.9-.8-39-14-46.6-32.7 1.7.8 3.7 1.2 5.7.4 3.9-1.6 4.9-6.4 5.1-12 5.8 3.2 12.8 3.9 19.4 1.8.9-.3 1.7-.9 2.1-1.7 1.1.6 2.5.6 3.7 0 5.7-3 14.2-4.1 19 2.6 1.5 2.3.3 15.3-8.4 41.6zm138.2 82.1h-9.6c-1.7 0-3.2 1-3.8 2.6-.6 1.6-.1 3.3 1.1 4.4 2.1 1.8 4.7 2.8 7.4 2.8s5.3-1 7.4-2.7c1.3-1.1 1.7-2.9 1.2-4.4-.5-1.7-2-2.7-3.7-2.7zm-36.6-10.9c-1.5-.6-3.2-.3-4.4.9-1.1.7-1.8 2-1.7 3.3 0 1.2.6 2.4 1.5 3.1.8 1 1.9 1.5 3.1 1.5.4 0 .8-.1 1.2-.2 1.7-.5 2.8-2.1 2.8-3.8v-1.1c0-1.6-1-3.1-2.5-3.7z"/><path class="st0" d="m422.9 197.9-2.3-2.3c-1.1-1.1-2.6-1.8-4.2-1.8h-9.3c-.4 0-.8 0-1.2.1-.4-.1-.8-.1-1.2-.1h-3.8c-1-2.1-3-3.5-5.5-3.5h-8.1c-2.8 0-5.2 2-5.8 4.7l-8.5-4.9c-1.9-1.2-4.3-1.2-6.2 0l-7.2 4.1c-.4-2.9-2.9-5.1-5.9-5.1h-1.1l.1-3.1v-.1c0-1.5-.6-2.9-1.6-4.1-1-1.2-2.7-1.9-4.4-1.9h-8.1c-3.3 0-6 2.7-6 6v3.5c-2 .5-3.6 2-4.3 3.9l-5.3-3.1c-1.9-1.2-4.3-1.2-6.2 0l-7.1 4.1c-.2-.4-.4-.9-.6-1.3-1.1-1.7-3-2.7-5-2.7h-7.6c-2.4 0-4.5 1.4-5.5 3.6l-1.7 3.9-1.7-3.9c-.9-2.2-3.1-3.6-5.5-3.6h-7.6c-2.1 0-3.9 1-5 2.7-.2.3-.4.6-.5.9l-6.6-3.8c-1.9-1.2-4.3-1.2-6.2 0l-14.9 8.6c-1.9 1-3.1 3-3.1 5.2v.3h-9l.5-7.3c.2-1.2-.1-2.4-.6-3.4.4-1.1.6-2.3.6-3.6 0-5.6-4.5-10.1-10.1-10.1s-10.1 4.5-10.1 10.1v.5h-4.4c-1.1 0-2.2.3-3.1.8l-1.9-1.1c-1.9-1.2-4.3-1.2-6.2 0l-5.8 3.3c-1-1.8-3-2.9-5.2-2.9H175c-1.3 0-2.6.4-3.6 1.2l-2.7-1.6c-1.9-1.2-4.3-1.2-6.2 0l-7.3 4.2c-.2-1.2-.8-2.4-1.7-3.3-1.1-1.1-2.6-1.8-4.2-1.8h-7c-1.1 0-2.2.3-3.1.9l-1 .6c-.6-.2-1.2-.3-1.8-.3h-8c-.6 0-1.2.1-1.8.3-.5-.1-1-.2-1.5-.2H117c-1.4 0-2.6.4-3.6 1.1l-2.7-1.6c-1.9-1.2-4.3-1.2-6.2 0l-13.2 7.6-13.2-7.6c-1.9-1.2-4.3-1.2-6.2 0l-8.3 4.8c-.1-.5-.3-1-.5-1.4.4-1.1.6-2.3.6-3.6 0-5.6-4.5-10.1-10.1-10.1s-10.1 4.5-10.1 10.1v.4h-5.8c-1.3 0-2.5.4-3.7 1.3-.1.1-.2.2-.3.2l-2 1.9.4-8.5c.2-1.5-.3-2.9-1.3-4.3s-2.8-2.2-4.6-2.2h-8.1c-3.3 0-6 2.7-6 6v44.2c0 3.3 2.7 6 6 6h8.2c1.7 0 3.3-.7 4.4-1.9.6-.7 1.1-1.5 1.3-2.4l2.7 2.7c1.1 1.1 2.6 1.8 4.2 1.8h9.3c.4 0 .7 0 1.1-.1h8.4c1.8 0 3.6-.9 4.7-2.4.5-.7.9-1.5 1.1-2.3L72 235c.9.6 2 .9 3.1.9.7 0 1.5-.1 2.3-.4.3-.1.5-.2.7-.3l13.3-7.6 13.2 7.6c.9.6 2 .9 3.2.9 1 .2 2 .1 2.9-.4l2.8-1.6c1 .8 2.3 1.2 3.6 1.2h8.1c.7 0 1.3-.1 1.9-.3.4.1.8.1 1.3.1h8.1c3.3 0 6-2.7 6-6v-17.8l2.1-1.5v11.7c0 2 1 3.9 2.8 5 .1 0 .1.1.2.1l15 8.7c.9.6 2 .9 3.2.9 1 .2 2 .1 2.9-.4l2.8-1.6c1 .8 2.3 1.2 3.6 1.2h8.1c1.2 0 2.4-.4 3.3-1v5.2c0 3.3 2.7 6 6 6h16.3c1.6 0 3.1-.6 4.1-1.7l4.7-4.7c1.1-1.1 1.7-2.5 1.8-4h4.5c1.7 0 3.5-.9 4.6-2.3 0 0 0-.1.1-.1.9-1.1 1.3-2.5 1.3-3.9v-.3l-.4-5.1h9.1c.4 1.2 1.3 2.3 2.5 3.1.1 0 .1.1.2.1l15 8.7c.9.6 2 .9 3.1.9 1.5 0 2.6-.5 3.3-1.1l13.7-7.9-4.4 9.9c-.1.1-.1.2-.1.4-.6 1.9-.4 3.8.7 5.4 1.1 1.7 3 2.7 5 2.7h7.6c2.4 0 4.6-1.4 5.5-3.5l8.4-19c.4 1.4 1.3 2.7 2.6 3.5.1 0 .1.1.2.1l15 8.7c.9.6 2 .9 3.1.9 1.2 0 2.2-.4 2.8-.7.1 0 .1-.1.2-.1l9.7-5.6c.3 3 2.9 5.3 6 5.3h15.1c2.6 0 4.8-1.7 5.7-4.1l7.4 4.3c.9.6 2 .9 3.1.9 1.5 0 2.6-.5 3.3-1.1l8.2-4.7c.6 2.7 3 4.8 5.9 4.8h8.1c.8 0 1.6-.2 2.3-.5.7.3 1.5.5 2.3.5h7c.8 0 1.6-.2 2.3-.5.7.3 1.5.5 2.4.5h7c1.7 0 3.3-.7 4.4-1.9 1-1.1 1.6-2.7 1.5-4.2v-26.7c0-2.1-.6-3.6-1.8-4.7zm-275.6 2.3h-2.1c-.8 0-1.6.3-2.3.7l-6.8 4.8c-1.1.7-1.7 2-1.7 3.3v17.9h-5.3c-.7-.5-1.6-.8-2.5-.7-.8 0-1.7.4-2.3.9h-5.5c-.3-.9-.9-1.7-1.8-2.2-1.2-.7-2.8-.7-4 0l-5.1 2.9-14.1-8.1c-1.3-1-3.2-1.1-4.6-.2l-14 8.1-12.4-7.1c1-.9 1.6-2.2 1.4-3.6-.3-1.9-1.8-3.3-3.7-3.4-1.2-.5-2.6-.4-3.7.3-1.3.8-2.1 2.4-1.8 4l.1.7c.1.9.5 1.7 1.2 2.3-.6.8-.9 1.7-.8 2.7l.3 3.4H50c-.7-.2-1.4-.1-2.1.1h-8l-9.5-9.5c-1.2-1.2-3-1.5-4.5-.8s-2.4 2.3-2.3 4l.5 6.3h-3.8v-40.2h3.9l-.9 16.2c-.1 1.6.8 3.1 2.3 3.8 1.5.7 3.2.4 4.4-.7l8.6-7.9h7.2c-.1 0-.2.1-.3.2l-14.7 9.7c-1.1.7-1.8 1.9-1.8 3.2 0 1.3.6 2.5 1.6 3.3l14.7 11c1.2.9 2.8 1.1 4.2.4 1.4-.7 2.2-2.1 2.2-3.6v-20.7c0-1.3-.7-2.6-1.8-3.3l.6-.3c1.2-.3 2.2-1.2 2.6-2.4.6-1.5.2-3.3-1-4.4-.4-.4-.6-.8-.6-1.5 0-1.2.9-2.1 2.1-2.1 1.2 0 2.1.9 2.1 2.1 0 .6-.2 1.1-.6 1.5-1.2 1.1-1.6 2.9-1 4.4.3.8.9 1.4 1.5 1.9l-.3 4.1c-.1 1.5.6 2.9 1.9 3.7 1.3.8 2.8.8 4.1.1l13.7-7.9 12.3 7.1c-.7.6-1.3 1.5-1.4 2.5-.2 1.7.7 3.3 2.2 4.1l.2.1c.6.3 1.2.4 1.8.4h.3c2.2 0 4-1.8 4-4v-.2c0-.8-.2-1.5-.6-2.2l13.7-7.9 5.4 3.1c1.2.7 2.8.7 4 0 .8-.5 1.5-1.3 1.8-2.2h5.5c1.4 1.1 3.6 1 4.9-.1h6.2c.4.4 1 .7 1.5.8 1.1.3 2.2.2 3.2-.4l2.8-1.6h4.4v3.1zm-103.6 9v5.3l-3.7-2.8 3.7-2.5zm148.7 17.1c-1.2 0-2.4.4-3.3 1v-3l3.5 2h-.2zm46.4-11.1H227c-1.2-.7-2.6-.7-3.9 0-1.4.8-2.2 2.2-2.1 3.8l.6 7.9h-5.5c-.3-.1-.6-.1-1-.1-1.1 0-2.2.5-2.9 1.3-.8.8-1.1 1.9-1.1 3l.1 1.4v1.4l-3.5 3.5h-13.4v-3h8.8c2.2 0 4-1.8 4-4v-9.6c0-1.4-.8-2.8-2-3.5-1.2-.7-2.8-.7-4 0l-4.1 2.4-10-5.8c-1.2-.7-2.8-.7-4 0-1.2.7-2 2-2 3.5v9.8h-4.3c-.3-.9-.9-1.7-1.8-2.2-1.2-.7-2.8-.7-4 0l-5.1 2.9-13.4-7.7V205c.3-.1.5-.2.8-.4l12.3-7.1 5.4 3.1c1.2.7 2.8.7 4 0 .8-.5 1.5-1.3 1.8-2.2h4.3v1.4c0 1.4.8 2.8 2 3.5 1.2.7 2.8.7 4 0l10-5.8 4.1 2.4c1.2.7 2.8.7 4 0 .6-.4 1.1-.9 1.5-1.5h6.3c1.1.5 2.4.4 3.5-.2 1.2-.3 2.3-1.2 2.8-2.4.6-1.5.2-3.3-1-4.4-.4-.4-.6-.8-.6-1.5 0-1.2.9-2.1 2.1-2.1 1.1 0 2.1 1 2.1 2.1 0 .6-.2 1.1-.6 1.5-1.2 1.1-1.6 2.9-1 4.4.3.8.8 1.4 1.5 1.9l-.8 11c-.1 1.8.9 3.4 2.6 4 1.2.5 2.6.3 3.7-.4h12.3c.5.4 1 .8 1.6.9-1.1.3-1.9 1.1-2.3 2zm33.6 4.8-13.2 7.6-12.8-7.4c.5-.7.8-1.5.8-2.4 0-1.2-.5-2.3-1.4-3.1-.5-.8-1.3-1.4-2.2-1.7 1.6-.6 2.7-2.1 2.7-3.8V205l13.1-7.5 12.9 7.4c-.5.7-.8 1.5-.8 2.3 0 1 .4 1.9 1 2.6V220zm27.6-19.3c-.2.4-.3.7-.3 1.1-.2.3-.4.5-.5.8l-15.3 34.6h-3.3l6.4-14.5c.5-1 .5-2.2 0-3.2l-6.9-15.6c-.3-.7-.8-1.3-1.4-1.7.1-.7 0-1.5-.3-2.1l-.8-1.9h3.2l4.9 11c.6 1.4 2.1 2.4 3.7 2.4s3-.9 3.7-2.4l4.9-11h3.2l-1.2 2.5zm51.8 26.2h-11.2v-4.4c0-1.6-1-3.1-2.5-3.7-1.5-.6-3.2-.3-4.3.9l-13.9 8-12.9-7.4c.5-.7.8-1.5.8-2.3 0-1-.4-1.9-1-2.6v-10.1l13.1-7.5 10.1 5.8c1.2.7 2.8.7 4 0 1.2-.7 2-2 2-3.5v-2.8h.6c2.2 0 4-1.8 4-4V188h4l-.1 5.1c0 1.1.4 2.1 1.1 2.9s1.8 1.2 2.9 1.2h3.2v1.8h-3.3c-2.2 0-3.9 1.7-4 3.9l-.3 9.6v.3l.4 8.5c.1 2.1 1.9 3.8 4 3.8h3.3v1.8zm64.9 0h-2.9v-18.1c0-2.2-1.8-4-4-4h-.7c-2.2 0-4 1.8-4 4v18.1h-3v-18.1c0-2.2-1.8-4-4-4h-.7c-2.2 0-4 1.8-4 4v18.1h-4.1v-3.6c0-1.4-.8-2.7-2-3.5-1.2-.7-2.8-.7-4 0l-13.5 7.8-12-7c-.3-.2-.7-.3-1-.4v-15.3c.3-.1.6-.2.9-.4l12.2-7 13.4 7.7c1.2.7 2.8.7 4 0 1.2-.7 2-2 2-3.5v-3.5h4.1c.2 2 1.9 3.5 4 3.5h6.8c1.1.5 2.4.5 3.5 0h7.9l1.2 1.2v24z"/><path class="st0" d="M377.4 204c-2.1-1.8-4.7-2.7-7.4-2.7-2.9 0-5.6 1-7.6 2.9-1.2 1.1-1.6 2.9-1 4.4.6 1.5 2.1 2.5 3.7 2.5h9.7c1.7 0 3.2-1 3.8-2.6s.1-3.4-1.2-4.5zm-52.8 10.1H315c-1.6 0-3.1 1-3.7 2.5-.6 1.5-.2 3.3 1 4.4 2 1.8 4.7 2.9 7.5 2.9 2.7 0 5.3-1 7.4-2.7 1.3-1.1 1.7-2.9 1.2-4.4-.6-1.7-2.1-2.7-3.8-2.7zm-60.5 0h-9.6c-1.6 0-3.1 1-3.7 2.5-.6 1.5-.2 3.3 1 4.4 2 1.8 4.7 2.9 7.5 2.9 2.7 0 5.3-1 7.4-2.7 1.3-1.1 1.7-2.9 1.2-4.4-.6-1.7-2.1-2.7-3.8-2.7zm-156.5-12.8c-6.2 0-11.3 5.1-11.3 11.3 0 6.2 5.1 11.3 11.3 11.3s11.3-5.1 11.3-11.3c0-6.2-5.1-11.3-11.3-11.3zm0 14.6c-1.8 0-3.3-1.5-3.3-3.3s1.5-3.3 3.3-3.3c1.9 0 3.3 1.4 3.3 3.3 0 1.8-1.5 3.3-3.3 3.3zm207.4-4.8h9.6c1.6 0 3.1-1 3.7-2.5s.2-3.3-1-4.4c-2-1.8-4.7-2.9-7.5-2.9s-5.5 1-7.5 2.9c-1.2 1.1-1.6 2.9-1 4.4s2.1 2.5 3.7 2.5zm-149.4-9.8c-6.2 0-11.3 5.1-11.3 11.3 0 6.2 5.1 11.3 11.3 11.3s11.3-5.1 11.3-11.3c0-6.2-5.1-11.3-11.3-11.3zm0 14.6c-1.8 0-3.3-1.5-3.3-3.3s1.5-3.3 3.3-3.3c1.9 0 3.3 1.4 3.3 3.3 0 1.8-1.5 3.3-3.3 3.3zm88.9-4.8h9.6c1.6 0 3.1-1 3.7-2.5s.2-3.3-1-4.4c-2-1.8-4.7-2.9-7.5-2.9s-5.5 1-7.5 2.9c-1.2 1.1-1.6 2.9-1 4.4s2.1 2.5 3.7 2.5zm-184.4.5H80c1.6 0 3.1-1 3.7-2.5.6-1.5.3-3.2-.9-4.4-2.1-2.1-4.9-3.3-7.8-3.3-2.8 0-5.6 1.2-7.7 3.3-1.1 1.1-1.5 2.9-.9 4.4.6 1.5 2.1 2.5 3.7 2.5zm10 1.8h-10c-1.6 0-3.1 1-3.7 2.5-.6 1.5-.3 3.2.9 4.4 2.1 2.1 4.9 3.3 7.8 3.3 2.9 0 5.7-1.2 7.8-3.3 1.1-1.1 1.5-2.9.9-4.4s-2.1-2.5-3.7-2.5zm116.9-14c-5.1 0-9.2 4.1-9.2 9.2s4.1 9.2 9.2 9.2 9.2-4.1 9.2-9.2-4.1-9.2-9.2-9.2zm0 10.4c-.7 0-1.2-.5-1.2-1.2s.6-1.2 1.2-1.2c.7 0 1.2.5 1.2 1.2s-.5 1.2-1.2 1.2zm117.1 51.4c-.8-1-2-1.6-3.2-1.6.1-.4.2-.9.3-1.3.3-1.1.1-2.3-.5-3.2s-1.6-1.6-2.8-1.8l-2.1-.3c-2-.3-4 1-4.5 3-.2 1-.7 2.7-1.3 4.8-.3-.7-.7-1.3-1.3-1.8v-1.7c0-2.2-1.8-4-4-4H282c-1.7 0-3.1 1.1-3.7 2.5-.1-.2-.3-.5-.4-.7-.8-1-1.9-1.5-3.1-1.5h-12.7c-1.7 0-3.2 1.1-3.8 2.7-1-.3-2-.3-3 .1-.5.2-1 .6-1.3 1-.3-.7-.9-1.2-1.6-1.6-2.6-1.4-4.9-2.1-6.1-2.4l-.3-.1c-1.7-.5-3.4.2-4.4 1.7-.6-1.4-2-2.4-3.7-2.4h-12.7c-1.1 0-2.2.5-2.9 1.3-.5-.3-1.2-.4-1.8-.4h-7.8c-.6 0-1.1.1-1.6.4 0-.1-.1-.1-.1-.2-.7-.8-1.7-1.3-2.8-1.4l-1.7-.1c-2.2-.1-4 1.5-4.2 3.6-1.5.6-2.6 2-2.6 3.8v1.5c0 1.1.4 2 1.1 2.8-.2.5-.4 1-.6 1.7-.6 1.4-.3 3 .7 4.1-.5.4-.8.9-1.1 1.5-.3-1.9-1.9-3.4-3.9-3.4h-.6v-.4h.2c2.2 0 4-1.8 4-4v-1.6c0-2.2-1.8-4-4-4h-.2v-1.5c0-2.2-1.8-4-4-4h-1.6c-1.4 0-2.6.7-3.3 1.8-.7-1.1-1.9-1.9-3.4-1.9h-1.5c-1.9 0-3.6 1.4-3.9 3.2-.9.2-1.6.7-2.1 1.3-1.2-.9-2.4-1.9-3.3-3.1-.8-1-1.9-1.6-3.2-1.6h-1.7c-1.4 0-2.7.7-3.4 1.9-.3.4-1.1 1.6-3.1 2.8 0-.1-.1-.1-.1-.2-.3-.7-.7-1.3-1.4-1.8-1.3-.9-2.1-1.4-3.7-2.2-1.1-.5-2.3-.5-3.4-.1h-1.9c-1.9 0-3.5 1.4-3.9 3.2h-6.1c-.6-.3-1.2-.5-1.9-.5h-.3c-.4-1.8-2-3.1-3.9-3.1h-1.5c-.8 0-1.5.2-2.1.6h-.3c-.8-.1-1.7.1-2.4.4-.7-.5-1.5-.8-2.3-.8h-1.5c-2.2 0-3.9 1.7-4 3.9-1.6.5-2.8 2-2.8 3.8v1.5c0 1.1.4 2.1 1.2 2.8-.2.4-.4.7-.7 1-.9 1.1-1.1 2.6-.6 3.9l.7 1.9c.4 1 1.2 1.9 2.2 2.3v.6c0 2.2 1.8 4 4 4h1.5c1.4 0 2.6-.7 3.3-1.8.2 0 .4-.1.5-.1.7 1.1 1.9 1.8 3.3 1.8h1.5c1.3 0 2.5-.7 3.3-1.7h.4l.1.1c.7.5 1.6.8 2.4.8h.6c3.7-.5 7.1-1.1 9.6-1.6 1.3 1.4 3 2.6 5.2 2.6 1.2 0 2.2-.3 3.1-1 .3.1.7.2 1.1.2 2.4 0 7.9-.2 11.8-.5.5.6 1.2 1 2 1.1.3.1.6.1.9.1.8 0 1.5-.2 2.2-.6l1.4-.9c.7.9 1.8 1.4 3 1.4h1.5c.7 0 1.3-.2 1.9-.5h11.1c1.9 0 3.5-1.3 3.9-3.1.2.4.4.8.6 1.1l1.1 1.3c.8.9 1.9 1.4 3.1 1.4.8 0 1.7-.3 2.4-.8l.3-.2c.5-.4 1.2-.8 1.9-1.5.1 0 .2 0 .2.1.7 1.1 1.9 1.8 3.3 1.8h1.5c.9 0 1.7-.3 2.4-.8.7.5 1.5.8 2.4.8h1.6c.4 0 .8-.1 1.2-.2.7.5 1.5.7 2.3.7 1.2 0 2.3-.5 3.1-1.5.6-.7 1.1-1.5 1.6-2.3l.1.5c.3 1.9 2 3.3 3.9 3.3h3.4c2.1 0 3.9-1 4.9-2.5.7.8 1.8 1.3 3 1.3h.4c6-.6 9.9-2.5 12.7-5.4-.1 1 .1 1.9.7 2.7l1 1.4c.8 1.1 2 1.7 3.3 1.7.6 0 1.1-.1 1.7-.4 2.3-1.1 4.4-2.4 6.3-4 1.2 1.1 2.2 2.2 3.1 3.2.7.8 1.8 1.2 2.8 1.2 1.1 0 2.1-.4 2.9-1.2.8 1 1.9 1.5 3.1 1.5.3 0 .5 0 .8-.1 5.8-1.2 9.2-4.1 10.4-9h2.8c-.7.8-1 1.9-.9 2.9l.2 1.8c.2 2.1 2.1 3.7 4.2 3.6 4.5-.2 8.4-.5 11.2-.8.4.5 1 .9 1.6 1.2.5.2 1 .3 1.5.3.6 0 1.1-.1 1.6-.3l1.8-.8c2-.9 2.9-3.2 2.1-5.2-1.3-3.9-3.1-7-5.2-9.8zm-72.1 5.9zm17.8.6c.8-1.4 1.5-2.9 2.1-4.5h3.8c-2.3 2.8-4.8 4.1-5.9 4.5zm19.8.2c.1 0 .2.1.3.1-.1 0-.1.1-.2.1 0-.1 0-.1-.1-.2zm-3.2-3.4c0 .2.1.3.1.5l-.2-.2c.1-.1.1-.2.1-.3z"/><path d="M238.4 136c-31.1 0-56.4-25.3-56.4-56.4 0-30.6 24.3-55.4 54.6-56.4-6.3-1.8-13-2.8-20-2.8-39.7 0-71.8 32.2-71.8 71.8 0 39.7 32.2 71.8 71.8 71.8 33.1 0 62-22.7 69.8-54.9-10.2 16.8-28.4 27-48 26.9z" fill="#e8e8e8"/><path class="st2" d="M248.2 88.1c-6-8.3-16.4-7.8-24.1-3.8 5.2-10.2 17.7-14.2 27.9-9 1.9 1 3.7 2.3 5.2 3.8 8 8.1 14.5 17.2 4 33.2-10.6 16-27.8 43.3-29.7 44.3 4-7.7 22.7-60.3 16.7-68.5z"/><path class="st2" d="M223.4 59c-8.3 6-7.8 16.4-3.8 24.1-10.2-5.2-14.2-17.7-9-27.9 1-1.9 2.3-3.7 3.8-5.2 8.1-8 17.2-14.5 33.2-4 16 10.6 43.3 27.8 44.3 29.7-7.6-4-60.2-22.7-68.5-16.7z"/><path class="st3" d="M241.9 68c-10.1-1.6-17.1 6.1-19.7 14.4-3.5-10.9 2.5-22.6 13.4-26.1 2-.7 4.2-1 6.3-1 11.4 0 22.5 1.9 26.3 20.7s11 50.3 10.3 52.3C275.9 120 252 69.6 241.9 68z"/><path class="st4" d="M53.7 196c-3.3 0-6.1-2.7-6.1-6.1s2.7-6.1 6.1-6.1c3.4 0 6.1 2.7 6.1 6.1s-2.7 6.1-6.1 6.1zm0-8.2c-1.1 0-2.1.9-2.1 2.1s.9 2.1 2.1 2.1c1.2 0 2.1-.9 2.1-2.1s-.9-2.1-2.1-2.1z"/><path class="st5" d="M57.8 189.9c0 2.2-1.8 4.1-4.1 4.1-2.2 0-4.1-1.8-4.1-4.1s1.8-4.1 4.1-4.1 4.1 1.8 4.1 4.1z"/><path class="st4" d="M219.7 196c-3.3 0-6.1-2.7-6.1-6.1s2.7-6.1 6.1-6.1c3.3 0 6.1 2.7 6.1 6.1s-2.7 6.1-6.1 6.1zm0-8.2c-1.1 0-2.1.9-2.1 2.1s.9 2.1 2.1 2.1c1.1 0 2.1-.9 2.1-2.1s-1-2.1-2.1-2.1z"/><path class="st5" d="M223.8 189.9c0 2.2-1.8 4.1-4.1 4.1s-4.1-1.8-4.1-4.1 1.8-4.1 4.1-4.1 4.1 1.8 4.1 4.1z"/><path class="st4" d="M285.1 241.3h-7.6c-.7 0-1.3-.3-1.7-.9-.4-.6-.4-1.3-.2-1.9l7.7-17.3-10.7-24.1c-.3-.6-.2-1.3.2-1.9.4-.6 1-.9 1.7-.9h7.6c.8 0 1.5.5 1.8 1.2l5.4 12.2 5.4-12.2c.3-.7 1-1.2 1.8-1.2h7.6c.7 0 1.3.3 1.7.9.4.6.4 1.3.2 1.9l-19.1 43.1c-.3.7-1 1.1-1.8 1.1zm-4.6-4h3.3l17.3-39.1h-3.3l-6.7 15.1c-.3.7-1 1.2-1.8 1.2s-1.5-.5-1.8-1.2l-6.7-15.1h-3.3l9.8 22.1c.2.5.2 1.1 0 1.6l-6.8 15.4z"/><path class="st5" d="m289.3 212.6-7.2-16.3h-7.6l11 24.9-8 18.1h7.6l19.1-43h-7.7l-7.2 16.3z"/><path class="st4" d="M136.4 230.9h-8.1c-.5 0-1-.2-1.4-.6-.4-.4-.6-.9-.6-1.4l.1-15.1v-17.4c0-1.1.9-2 2-2h8c.7 0 1.4.4 1.7 1l3.2-1.9c.3-.2.7-.3 1-.3h7c.5 0 1 .2 1.4.6.4.4.6.9.6 1.4v7c0 1.1-.9 2-2 2h-4.1l-6.8 4.8v19.9c0 1.1-.9 2-2 2zm-6.1-4h4.1V208c0-.6.3-1.3.8-1.6l8.2-5.8c.3-.2.7-.4 1.2-.4h2.8v-3H143l-5.5 3.2c-.6.4-1.4.4-2 0s-1-1-1-1.7v-.3h-4v15.5l-.2 13z"/><path class="st5" d="M136.4 198.6v-2.3h-8v17.4l-.1 15.2h8.1v-21l8.2-5.8h4.7v-7h-7l-5.9 3.5z"/><path class="st4" d="M26.4 230.9h-8.2c-1.1 0-2-.9-2-2v-44.2c0-1.1.9-2 2-2h8.1c.5 0 1.1.2 1.4.6.3.4.6.9.5 1.5l-.9 18.4 9.2-8.4c.4-.3.8-.5 1.3-.5h9.3c1.1 0 2 .9 2 2v3.5c0 .7-.3 1.3-.9 1.7L33 211.6l16.5 12.3c.5.4.8 1 .8 1.6v3.5c0 1.1-.9 2-2 2H39c-.5 0-1-.2-1.4-.6l-10.1-10.1.7 8.2c0 .1.1.3.1.4.1 1.1-.8 2-1.9 2zm-6.1-4h4l-1-11.8c-.1-.8.4-1.6 1.2-2 .8-.4 1.7-.2 2.3.4L40 226.9h6.5v-.5l-18-13.4c-.5-.4-.8-1-.8-1.7s.4-1.3.9-1.6l16.7-11v-.4h-6.5l-12.2 11.1c-.6.5-1.5.7-2.2.3-.7-.3-1.2-1.1-1.1-1.9l1.1-21.2h-4v40.3h-.1z"/><path class="st5" d="M46.3 199.8v-3.5H37l-12.8 11.6 1.2-23.3h-8.1v44.3h8.1l-1.2-14 14 14h9.3v-3.5l-18.8-14 17.6-11.6z"/><path class="st4" d="M57.8 230.9h-8.1c-1.1 0-2-.9-2-2v-32.6c0-1.1.9-2 2-2h8.1c.6 0 1.1.2 1.5.6.4.4.6 1 .5 1.5l-1.2 16.1 1.2 16.1c0 .6-.2 1.1-.5 1.5s-.9.8-1.5.8zm-6.1-4h4l-1-14.1v-.3l1-14.1h-4v28.5z"/><path class="st5" d="M49.7 196.3v32.6h8.1l-1.1-16.3 1.1-16.3h-8.1z"/><path class="st4" d="M223.8 230.9h-8.1c-1.1 0-2-.9-2-2v-32.6c0-1.1.9-2 2-2h8.1c.6 0 1.1.2 1.5.6.4.4.6 1 .5 1.5l-1.2 16.1 1.2 16.1c0 .6-.2 1.1-.5 1.5-.4.5-1 .8-1.5.8zm-6.2-4h4l-1-14.1v-.3l1-14.1h-4v28.5z"/><path class="st5" d="M215.6 196.3v32.6h8.2l-1.2-16.3 1.2-16.3h-8.2z"/><path class="st4" d="M353.7 230.9h-15.1c-1.1 0-2-.9-2-2V203H334c-1.1 0-2-.9-2-2v-5.8c0-1.1.9-2 2-2h2.7v-7.3c0-1.1.9-2 2-2h8.1c.5 0 1.1.2 1.4.6.4.4.6.9.6 1.4l-.2 7.2h5.2c1.1 0 2 .9 2 2v5.8c0 1.1-.9 2-2 2h-5.4l-.3 9.6.4 8.5h5.3c1.1 0 2 .9 2 2v5.8c-.1 1.2-1 2.1-2.1 2.1zm-13.1-4h11.1V225h-5.2c-1.1 0-2-.8-2-1.9l-.5-10.5v-.1l.3-11.6c0-1.1.9-1.9 2-1.9h5.4v-1.8h-5.2c-.5 0-1.1-.2-1.4-.6-.4-.4-.6-.9-.6-1.4l.2-7.2h-4.1v7.3c0 1.1-.9 2-2 2H336v1.8h2.7c1.1 0 2 .9 2 2v25.8h-.1z"/><path class="st5" d="M346.4 200.9h7.3v-5.8h-7.2l.3-9.3h-8.2v9.3H334v5.8h4.6v28h15.1V223h-7.2l-.5-10.4.4-11.7z"/><path class="st4" d="M208.7 241.3h-16.3c-1.1 0-2-.9-2-2v-7c0-1.1.9-2 2-2h10.8v-9.6l-5.1 3c-.6.4-1.4.4-2 0l-11.6-6.7c-.6-.4-1-1-1-1.7v-13.4c0-.7.4-1.4 1-1.7l11.6-6.7c.6-.4 1.4-.4 2 0l5.1 3v-.1c0-1.1.9-2 2-2h8.1c.6 0 1.1.2 1.5.6.4.4.6 1 .5 1.5l-1.2 16.2 1.2 19.6v2.4c0 .5-.2 1-.6 1.4l-4.7 4.7c-.3.3-.8.5-1.3.5zm-14.3-4h13.5l3.5-3.5v-1.4l-1.2-19.7v-.3l1-14.1h-4v1.5c0 .7-.4 1.4-1 1.7-.6.4-1.4.4-2 0l-7.1-4.1-9.6 5.6v11.1l9.6 5.6 7.1-4.1c.6-.4 1.4-.4 2 0s1 1 1 1.7v15.1c0 1.1-.9 2-2 2h-10.8v2.9zm2.6-19.6c-5 0-9.2-4.1-9.2-9.2s4.1-9.2 9.2-9.2 9.2 4.1 9.2 9.2-4.1 9.2-9.2 9.2zm0-14.3c-2.8 0-5.2 2.3-5.2 5.2s2.3 5.2 5.2 5.2 5.2-2.3 5.2-5.2-2.3-5.2-5.2-5.2z"/><path class="st5" d="M213.3 196.3h-8.1v3.5l-8.1-4.7-11.6 6.7v13.4L197 222l8.1-4.7v15.1h-12.8v7h16.3l4.7-4.7v-2.3l-1.2-19.8 1.2-16.3zM197 215.7c-4 0-7.2-3.2-7.2-7.2s3.2-7.2 7.2-7.2 7.2 3.2 7.2 7.2-3.2 7.2-7.2 7.2z"/><path class="st4" d="M240.4 219.2h-14c-1.1 0-2-.9-2-2v-7c0-1.1.9-2 2-2h14c1.1 0 2 .9 2 2v7c0 1.1-.9 2-2 2zm-12-4h10v-3h-10v3z"/><path class="st5" d="M226.4 210.2h14v7h-14v-7z"/><path class="st4" d="M418.8 230.9h-7c-1.1 0-2-.9-2-2v-20.1h-.7v20.1c0 1.1-.9 2-2 2h-7c-1.1 0-2-.9-2-2v-20.1h-.7v20.1c0 1.1-.9 2-2 2h-8.1c-1.1 0-2-.9-2-2v-32.6c0-1.1.9-2 2-2h8.1c1.1 0 2 .9 2 2v1.5h7.3c.4 0 .8.1 1.2.4.3-.2.7-.4 1.2-.4h9.3c.5 0 1 .2 1.4.6l2.3 2.3c.4.4.6.9.6 1.4v26.8c.1 1.1-.8 2-1.9 2zm-5-4h3V203l-1.2-1.2h-6.5v.3c0 .8-.5 1.5-1.2 1.8s-1.6.1-2.2-.4l-1.7-1.7h-8.5c-1.1 0-2-.9-2-2v-1.5h-4.1v28.6h4.1v-20.1c0-1.1.9-2 2-2h4.7c1.1 0 2 .9 2 2v20.1h3v-20.1c0-1.1.9-2 2-2h4.7c1.1 0 2 .9 2 2l-.1 20.1z"/><path class="st5" d="M416.4 199.8h-9.3v2.3l-2.3-2.3h-9.3v-3.5h-8.1v32.6h8.1v-22.1h4.7v22.1h6.9v-22.1h4.7v22.1h7v-26.8l-2.4-2.3z"/><path class="st4" d="M75.1 231.9c-.3 0-.7-.1-1-.3L59 223c-.6-.4-1-1-1-1.7v-1.7c0-.9.6-1.7 1.5-1.9l.7-.2H60c-1.1 0-2-.9-2-2v-11.6c0-.7.4-1.4 1-1.7l15.1-8.7c.6-.4 1.4-.4 2 0l15.1 8.7c.6.4 1 1 1 1.7v1.7c0 .9-.6 1.7-1.5 1.9l-.7.2h.2c1.1 0 2 .9 2 2v11.6c0 .7-.4 1.4-1 1.7l-15.1 8.7c-.3.1-.7.2-1 .2zm-11.9-11.1 11.9 6.9 13.1-7.6v-8.5H66.6c-.6 0-1.3-.3-1.6-.8-.4-.5-.5-1.2-.3-1.8 2-5.7 8.3-8.8 14-6.8 1.8.6 3.3 1.7 4.6 3.1l3.6-1-11.9-6.9-13 7.6v8.5h21.6c.6 0 1.3.3 1.6.8.3.5.5 1.2.3 1.8-2 5.7-8.3 8.8-14 6.8-1.8-.6-3.3-1.7-4.6-3.1l-3.7 1zm6.9-3.4c1.3 1.3 3.1 2.1 5 2.1s3.7-.8 5-2.1h-10zm0-9.8H80c-1.3-1.3-3.1-2.1-5-2.1-1.8 0-3.6.8-4.9 2.1z"/><path class="st5" d="M60 203.8v11.6h23.6c-1.3 3.6-4.7 6.1-8.5 6.1-3.1 0-5.9-1.6-7.5-4l-7.6 2v1.7l15.1 8.7 15.1-8.7v-11.6H66.6c1.6-4.7 6.7-7.2 11.4-5.6 1.9.6 3.5 1.9 4.6 3.5l7.6-2v-1.7l-15.1-8.7-15.1 8.7z"/><path class="st4" d="M107.6 232c-.3 0-.7-.1-1-.3L91.5 223c-.6-.4-1-1-1-1.7v-17.4c0-.7.4-1.4 1-1.7l15.1-8.7c.6-.4 1.4-.4 2 0l6.4 3.7v-.6c0-.6.2-1.1.5-1.5s.9-.6 1.5-.6h8.1c1.1 0 2 .9 2 2v32.6c0 1.1-.9 2-2 2H117c-.6 0-1.1-.2-1.5-.6-.4-.4-.6-1-.5-1.5v-.6l-6.4 3.7c-.3-.2-.7-.1-1-.1zm-13.1-11.9 13.1 7.6 8.6-5c.6-.4 1.4-.4 2.1 0 .6.4 1 1.1.9 1.8l-.2 2.3h4v-28.6h-4l.2 2.3c.1.7-.3 1.4-.9 1.8-.6.4-1.4.4-2.1 0l-8.6-5-13.1 7.7v15.1zm13.1 3.8c-6.2 0-11.3-5.1-11.3-11.3s5.1-11.3 11.3-11.3c6.2 0 11.3 5.1 11.3 11.3s-5.1 11.3-11.3 11.3zm0-18.6c-4 0-7.3 3.3-7.3 7.3s3.3 7.3 7.3 7.3 7.3-3.3 7.3-7.3c0-4.1-3.3-7.3-7.3-7.3z"/><path class="st5" d="m117.2 200.7-9.6-5.6-15.1 8.7v17.4l15.1 8.7 9.6-5.6-.3 4.4h8.1v-32.6h-8.1l.3 4.6zm-9.6 21.2c-5.1 0-9.3-4.2-9.3-9.3s4.2-9.3 9.3-9.3 9.3 4.2 9.3 9.3-4.2 9.3-9.3 9.3z"/><path class="st4" d="M165.6 232c-.3 0-.7-.1-1-.3l-15.1-8.7c-.6-.4-1-1-1-1.7v-17.4c0-.7.4-1.4 1-1.7l15.1-8.7c.6-.4 1.4-.4 2 0l6.4 3.7v-.6c0-.6.2-1.1.5-1.5.4-.4.9-.6 1.5-.6h8.1c1.1 0 2 .9 2 2v32.6c0 1.1-.9 2-2 2H175c-.6 0-1.1-.2-1.5-.6-.4-.4-.6-1-.5-1.5v-.6l-6.4 3.7c-.3-.2-.7-.1-1-.1zm-13.1-11.9 13.1 7.6 8.6-5c.6-.4 1.4-.4 2.1 0 .6.4 1 1.1.9 1.8l-.2 2.3h4v-28.6h-4l.2 2.3c.1.7-.3 1.4-.9 1.8-.6.4-1.4.4-2.1 0l-8.6-5-13.1 7.6v15.2zm13.1 3.8c-6.2 0-11.3-5.1-11.3-11.3s5.1-11.3 11.3-11.3 11.3 5.1 11.3 11.3-5.1 11.3-11.3 11.3zm0-18.6c-4 0-7.3 3.3-7.3 7.3s3.3 7.3 7.3 7.3 7.3-3.3 7.3-7.3c0-4.1-3.3-7.3-7.3-7.3z"/><path class="st5" d="m175.2 200.7-9.6-5.6-15.1 8.7v17.4l15.1 8.7 9.6-5.6-.3 4.4h8.1v-32.6h-8.1l.3 4.6zm-9.6 21.2c-5.1 0-9.3-4.2-9.3-9.3s4.2-9.3 9.3-9.3 9.3 4.2 9.3 9.3-4.2 9.3-9.3 9.3z"/><path class="st4" d="M319.9 232c-.3 0-.7-.1-1-.3l-15.1-8.7c-.6-.4-1-1-1-1.7v-1.7c0-.7.4-1.4 1-1.7-.6-.3-1-1-1-1.7V204c0-.7.4-1.4 1-1.7l15.1-8.7c.6-.4 1.4-.4 2 0l15.1 8.7c.6.4 1 1 1 1.7v1.7c0 .7-.4 1.4-1 1.7.6.3 1 1 1 1.7v12.2c0 .7-.4 1.4-1 1.7l-15.1 8.7c-.4.2-.7.3-1 .3zm-12-11.2 11.9 6.9 13.1-7.6V211h-21.7c-.7 0-1.3-.3-1.7-.9-.4-.6-.4-1.3-.2-1.9 1.7-4.3 5.9-7.1 10.5-7.1 3.3 0 6.4 1.4 8.6 3.9l3.4-.8-11.9-6.9-13.1 7.6v9.1h21.7c.7 0 1.3.3 1.7.9.4.6.4 1.3.2 1.9-2.3 5.8-8.9 8.6-14.7 6.3-1.7-.7-3.1-1.7-4.3-3.1l-3.5.8zm7.1-2.7c1.3 1.2 3 1.8 4.8 1.8s3.5-.7 4.8-1.8H315zm0-11h9.6c-1.3-1.2-3-1.8-4.8-1.8s-3.5.6-4.8 1.8z"/><path class="st5" d="M304.7 203.8V216h23.8c-1.4 3.5-4.8 5.8-8.6 5.8-3.2 0-6.1-1.7-7.8-4.2l-7.4 1.8v1.7l15.1 8.7 15.1-8.7v-12.2h-23.7c1.9-4.8 7.4-7.1 12.1-5.1 1.8.7 3.3 1.9 4.3 3.5l7.4-1.8v-1.7l-15.1-8.7-15.2 8.7z"/><path class="st4" d="M259.3 232c-.3 0-.7-.1-1-.3l-15.1-8.7c-.6-.4-1-1-1-1.7v-1.8c0-.7.4-1.4 1-1.7-.6-.3-1-1-1-1.7v-12.2c0-.7.4-1.4 1-1.7l15.1-8.7c.6-.4 1.4-.4 2 0l15.1 8.7c.6.4 1 1 1 1.7v1.7c0 .7-.4 1.4-1 1.7.6.3 1 1 1 1.7v12.2c0 .7-.4 1.4-1 1.7l-15.1 8.7c-.3.3-.6.4-1 .4zm-11.9-11.2 11.9 6.9 13.1-7.6V211h-21.7c-.7 0-1.3-.3-1.7-.9-.4-.6-.4-1.3-.2-1.9 2.3-5.8 8.9-8.6 14.7-6.3 1.7.7 3.1 1.7 4.3 3.1l3.4-.8-11.9-6.9-13.1 7.6v9.1H268c.7 0 1.3.3 1.7.9.4.6.4 1.3.2 1.9-2.3 5.8-8.9 8.6-14.7 6.3-1.7-.7-3.1-1.7-4.3-3.1l-3.5.8zm7.1-2.7c1.3 1.2 3 1.8 4.8 1.8s3.5-.7 4.8-1.8h-9.6zm0-11h9.6c-1.3-1.2-3-1.8-4.8-1.8s-3.5.6-4.8 1.8z"/><path class="st5" d="M244.2 203.8V216H268c-1.4 3.5-4.8 5.8-8.6 5.8-3.2 0-6.1-1.7-7.8-4.2l-7.4 1.8v1.8l15.1 8.7 15.1-8.7V209h-23.7c1.9-4.8 7.4-7.1 12.1-5.1 1.8.7 3.3 1.9 4.3 3.5l7.4-1.8v-1.7l-15.1-8.7-15.2 8.6z"/><path class="st4" d="M369.9 232c-.3 0-.7-.1-1-.3l-15.1-8.7c-.6-.4-1-1-1-1.7v-17.4c0-.7.4-1.4 1-1.7l15.1-8.7c.6-.4 1.4-.4 2 0l15.1 8.7c.6.4 1 1 1 1.7v12.2c0 .7-.4 1.4-1 1.7.6.3 1 1 1 1.7v1.7c0 .7-.4 1.4-1 1.7l-15.1 8.7c-.3.3-.6.4-1 .4zm-13.1-11.9 13.1 7.6 11.9-6.9-3.4-.8c-2.1 2.5-5.2 3.9-8.5 3.9-4.6 0-8.7-2.8-10.5-7.1-.3-.6-.2-1.3.2-1.9.4-.6 1-.9 1.7-.9H383v-9l-13.1-7.6-13.1 7.6v15.1zm8.3-2c1.3 1.2 3 1.8 4.8 1.8s3.5-.7 4.8-1.8h-9.6zm13.4-7h-17.3c-.7 0-1.3-.3-1.7-.9-.4-.6-.4-1.3-.2-1.9 2.3-5.8 8.9-8.6 14.7-6.3 2.9 1.1 5.2 3.4 6.3 6.3.3.6.2 1.3-.2 1.9-.3.5-.9.9-1.6.9zm-13.4-4h9.7c-1.3-1.1-3-1.8-4.8-1.8s-3.6.6-4.9 1.8z"/><path class="st5" d="M354.8 203.8v17.4l15.1 8.7 15.1-8.7v-1.7l-7.4-1.8c-2.8 4.3-8.6 5.5-12.9 2.7-1.6-1-2.8-2.5-3.5-4.3H385v-12.2l-15.1-8.7-15.1 8.6zm23.7 5.3h-17.3c1.4-3.5 4.8-5.8 8.6-5.8 4 0 7.4 2.4 8.7 5.8z"/><path d="M127.3 267.4c-.8-1.2-1.2-1.7-1.7-2.9v9.3h-1.5v-9.4c-.2.6-.9 2.8-2.4 5.1l-.7-1.9c1.6-2 2.6-4.8 3-6.3h-2.6v-1.5h2.8v-3.7h1.5v3.7h2.4v1.5h-2.4v1.2c.4.9 1.6 2.5 2.6 3.6l-1 1.3zm7 6.3h-1.5v-7c-1.2 2.3-2.5 3.7-4.6 5.4l-1.1-1.3c2.8-2 4.3-4.1 5.2-5.8h-4.4v-1.5h4.9v-3h-2.4c-.6 1.3-1 1.9-1.4 2.4l-1.4-.9c1-1.2 1.7-2.5 2.3-5.6l1.6.2c-.1.6-.2 1.2-.6 2.4h1.9v-3.1h1.5v3.1h4.2v1.4h-4.2v3h4.6v1.5h-4.1c1.4 2.9 2.8 4.3 4.4 5.6l-.9 1.6c-1.8-1.5-3.1-3.4-4-5.6v7.2zm16.1-2.4c-2.7.6-6.3 1.2-9.9 1.7l-.2-1.6c.8-.1 1.8-.2 4.2-.5v-6h-3.8v-1.5h9.1v1.5H146v5.7c2.7-.5 3.6-.6 4.3-.8l.1 1.5zm1.5-15.2v3.2h6v1.5h-6c.2 3.5.4 7.2 2.4 10.1.2.3.7 1.1 1.3 1.1.5 0 .9-1.3 1.1-3.1l1.5.7c-.2 1.4-.6 4.3-2.3 4.3-2.1 0-3.7-3.2-4.1-4.6-1-2.9-1.1-4.4-1.3-8.3h-10v-1.5h10c0-.9-.1-2-.1-3.2h1.5v-.2zm4.1 3c-.7-.6-1.5-1.2-3-2l.9-1.1c1.4.7 2 1.1 3.1 1.9l-1 1.2zm17.2 3.7h-10v-1.1c-1.7 1-2.7 1.5-3.4 1.8l-.8-1.5c5.7-2.2 7.8-5.3 8.3-6.1h1.7c2 2.6 5 4.9 8.3 6.1l-.8 1.5c-.8-.4-1.9-.9-3.2-1.8v1.1h-.1zm-1.7 4.5c2 2 3.2 3.3 4.7 5.6l-1.4.9c-.3-.5-.5-.9-.9-1.5-3.2.5-10.9.8-13.8.8l-.2-1.6h2.6c1.2-2.1 1.9-3.8 2.3-4.9h-5.2v-1.5h17v1.5h-9.9c-.5 1-1.2 2.7-2.5 4.9.5 0 2.6-.1 3-.1 2.3-.1 4.3-.3 5.7-.4-.2-.2-1.1-1.4-2.6-2.9l1.2-.8zm1.1-6c-1.7-1.1-3.2-2.5-4.4-4.1-1.2 1.7-2.8 3-4.4 4.1h8.8zm10.3 12.4h-1.5V266c-1.2 1.1-2.1 1.7-2.6 2l-.6-1.6c3.2-1.9 4.9-4.4 5.6-5.9h-5.3v-1.4h3V256h1.5v3.1h2.5v1.4c-.2.5-.7 1.6-2.1 3.4 1 1.2 1.7 1.7 2.7 2.5l-.9 1.4c-1-.8-1.2-1-2.3-2.3v8.2zm8.4-17.6v5.5h4.2v1.6h-4.2v8.4h4.6v1.6h-11.1v-1.6h4.9v-8.4h-4v-1.6h4v-5.5h1.6zm20.1 3.4c-.2 4.2-1 7.3-1.8 8.9.9.7 1.6 1.2 2.1 1.7l-1.1 1.5c-.5-.5-1-1-1.9-1.7-1.5 2.3-3.3 3.4-4.1 4l-1.1-1.3c1-.6 2.6-1.6 4-3.6-1.6-1.1-2.9-1.7-3.6-2.1 1-2.5 1.2-3.5 1.7-5.9h-1.9v-1.5h2.2c.2-1.2.3-2.3.4-3.4l1.7.1c-.1 1-.2 2.1-.4 3.3h3.8zm-4.2 1.4c-.3 1.6-.6 3-1.5 5.2.6.3 1.4.7 2.6 1.4 1.1-2.4 1.4-5.4 1.5-6.6h-2.6zm13.4-3.5v15.8H219v-1.3h-4.7v1.3h-1.5v-15.8h7.8zm-1.6 1.5h-4.7v11.6h4.7v-11.6zm19 13.1c0 1.5-1.2 1.7-1.8 1.7h-3.4l-.3-1.7h3.3c.4 0 .5-.3.5-.6v-4.2h-9.5c-.4 2.6-1.1 4.5-2.7 6.5l-1.4-1.1c1-1.1 2.6-3.1 2.6-7.4v-8.6H238V272zm-11.1-13.8v3h9.5v-3h-9.5zm0 4.5v3.2h9.5v-3.2h-9.5zm21.2 2.6c-2.3-1.2-2.9-1.5-5.4-2.2l.8-1.5c1.4.4 3.4 1 5.4 2.2l-.8 1.5zm-4.4 5.4c7.9-.5 11.1-3.9 13.3-10.6l1.6.7c-2.4 6.7-5.4 10.8-14.5 11.7l-.4-1.8zm6-9.8c-2.3-1.3-4.6-2-5.5-2.2l.8-1.5c1.1.3 3.2.8 5.5 2.1l-.8 1.6zm11.5 10.6c3.2-1.3 8.7-4.9 11.3-12.2h-10.4v-1.6h12.7c-.7 2.9-2 5.6-3.8 7.9 2.3 1.8 4.5 3.8 6.6 5.9l-1.4 1.4c-2-2.1-4-4.1-6.2-6-2.1 2.6-4.8 4.6-7.8 6l-1-1.4zm35.2-9.1v1.7h-6.5c-.2 5.4-2.2 8-7.7 9.1l-.8-1.5c4.8-.8 6.6-3 6.6-7.7h-7.6v-1.7h16v.1zm-1.6-5v1.6h-12.7v-1.6h12.7zm16.1 6.2c2 2.6 3.6 5.5 4.9 8.7l-1.8.8c-.2-.5-.3-.9-.7-1.8-2.5.4-7.3.8-13.8 1.1l-.2-1.8h1.8c2.1-5.3 3.6-11.1 4.2-13.6l2.1.3c-1.4 5.3-3.3 10.4-4.4 13.3 5.9-.2 9.1-.6 9.7-.6-1-1.9-2-3.8-3.3-5.5l1.5-.9z" fill="#393a3a"/><path class="st3" d="M204.6 66c-1.6 10.1 6.1 17.1 14.4 19.7-10.9 3.5-22.6-2.5-26.1-13.4-.7-2-1-4.2-1-6.3 0-11.4 1.9-22.5 20.7-26.3s50.3-11 52.3-10.3c-8.3 2.6-58.7 26.5-60.3 36.6z"/><path class="st2" d="M196.8 83.8c0 9.2-.9 17-8.9 9-8.1-8.1-10.6-23.3-4-33.2s27.8-43.3 29.7-44.3c-4.1 7.7-16.8 51.6-16.8 68.5z"/></svg>